inDegrees=no
num_controls=7
num_derivatives=13
num_iterations=120
num_multipliers=7
num_parameters=0
num_slacks=7
num_states=26
objective=4.289801
objective_accelerations=0.496416
objective_balance=0.042990
objective_effort=0.605298
objective_height=3.051649
objective_ligament=0.093448
solver_duration=1231.516324
status=Solve_Succeeded
success=true
DataType=double
version=3
OpenSimVersion=4.4-2022-07-23-0e9fedc
endheader
time	/jointset/ground_pelvis/pelvis_tilt/value	/jointset/ground_pelvis/pelvis_tx/value	/jointset/ground_pelvis/pelvis_ty/value	/jointset/hip_l/hip_flexion_l/value	/jointset/hip_l/hip_adduction_l/value	/jointset/hip_l/hip_rotation_l/value	/jointset/back/lumbar_extension/value	/jointset/patellofemoral_l/patellar_flexion_l/value	/jointset/knee_l/knee_flexion_l/value	/jointset/knee_l/knee_adduction_l/value	/jointset/knee_l/knee_rotation_l/value	/jointset/ankle_l/ankle_angle_l/value	/jointset/subtalar_l/subtalar_angle_l/value	/jointset/ground_pelvis/pelvis_tilt/speed	/jointset/ground_pelvis/pelvis_tx/speed	/jointset/ground_pelvis/pelvis_ty/speed	/jointset/hip_l/hip_flexion_l/speed	/jointset/hip_l/hip_adduction_l/speed	/jointset/hip_l/hip_rotation_l/speed	/jointset/back/lumbar_extension/speed	/jointset/patellofemoral_l/patellar_flexion_l/speed	/jointset/knee_l/knee_flexion_l/speed	/jointset/knee_l/knee_adduction_l/speed	/jointset/knee_l/knee_rotation_l/speed	/jointset/ankle_l/ankle_angle_l/speed	/jointset/subtalar_l/subtalar_angle_l/speed	/forceset/tau_hip_flexion_l	/forceset/tau_hip_adduction_l	/forceset/tau_hip_rotation_l	/forceset/tau_knee_flexion_l	/forceset/tau_ankle_angle_l	/forceset/tau_subtalar_angle_l	/forceset/tau_lumbar_extension	lambda_cid13_p0	lambda_cid13_p1	lambda_cid13_p2	lambda_cid13_p3	lambda_cid13_p4	lambda_cid13_p5	lambda_cid14_p0	/jointset/ground_pelvis/pelvis_tilt/accel	/jointset/ground_pelvis/pelvis_tx/accel	/jointset/ground_pelvis/pelvis_ty/accel	/jointset/hip_l/hip_flexion_l/accel	/jointset/hip_l/hip_adduction_l/accel	/jointset/hip_l/hip_rotation_l/accel	/jointset/back/lumbar_extension/accel	/jointset/patellofemoral_l/patellar_flexion_l/accel	/jointset/knee_l/knee_flexion_l/accel	/jointset/knee_l/knee_adduction_l/accel	/jointset/knee_l/knee_rotation_l/accel	/jointset/ankle_l/ankle_angle_l/accel	/jointset/subtalar_l/subtalar_angle_l/accel	gamma_cid13_p0	gamma_cid13_p1	gamma_cid13_p2	gamma_cid13_p3	gamma_cid13_p4	gamma_cid13_p5	gamma_cid14_p0
0.5	-0.09775133915382672	-0.03660902260052739	0.7462413604558019	1.120006474872909	-0.3261992356935648	-0.01873677794783939	-0.796270099621505	1.196015287186095	1.196015287185985	-0.04899349031939897	-0.1745148406947415	0.260827761429938	0.06094356457270524	-0.09629610049563084	-0.1084986367776409	-0.667303873242813	2.10099731166407	-0.003693901096286349	0.6749546176945146	-0.7974660559833172	2.476633950610998	2.476633950611492	0.281958551723604	-9.842868722832216e-05	0.6437594245193418	0.2619792525090403	-0.2741819966742507	0.01093098133345733	-0.006008714561316295	-0.3117308248381888	0.06200155980392483	0.04048416442313887	0.3303292901644341	-23.08986078639215	-13.9489631834897	2.237352499845137	-10.71053131172332	-693.3562613567028	-74.18789717953943	-1.067518658041434	0.6159898747850457	0.8100468389132091	-0.3842236814912956	-1.70395726703405	0.3732854312587046	-0.6436690065356504	1.988040235512585	-2.07740887572054	-2.077408875720471	-0.1656334263837144	0.03041383555571273	-1.102322095394468	0.2996609219869664	-2.706910762126473e-07	-1.32920157269561e-06	1.016563288475779e-06	-9.937042786922327e-08	-3.166876585350622e-07	-3.549857683456092e-07	-2.845201733536616e-07
0.51	-0.09868323779061508	-0.03765361747021829	0.7395506741319207	1.140928443429219	-0.3262184918674885	-0.01202004448363202	-0.8041448375151543	1.220674205359696	1.220674205359554	-0.04618354501209058	-0.1745157688451719	0.2672087614065354	0.06357649715494997	-0.09005489435248523	-0.100431666286037	-0.6706752166752169	2.083125545944968	-0.0001721072105407757	0.6683333709200945	-0.7774296410970691	2.45481964494868	2.454819644949091	0.2800314317716713	-8.996621491514805e-05	0.6323361215578136	0.2645469219553681	-0.2809687269693528	0.01079743547611734	-0.005686585935604979	-0.318357001943006	0.05999334131426275	0.03978906997451711	0.3373360827524438	-24.17624582995774	-13.31090204446689	1.968902380039238	-10.16732964828527	-700.1149945810845	-74.11821241879593	-0.6935343503208318	0.6324712871345403	0.8033044274683093	-0.2899255791953784	-1.869442695214504	0.3393324976968584	-0.680439565577741	2.019224362123358	-2.282890432479299	-2.282890432491853	-0.2063314151299205	-0.01416671658370512	-1.178059898619165	0.2263456069466294	-2.581506614013923e-07	-1.196028156054625e-06	1.068525442848978e-06	-8.569696201838084e-08	-3.013974782595007e-07	-2.519582817013782e-07	-2.789844515281651e-07
0.52	-0.09955186730535232	-0.03861788618035564	0.7328310071927002	1.161663563034165	-0.3262029888764652	-0.005371340897689068	-0.8118176548105519	1.245105090672476	1.2451050906723	-0.04339288693141496	-0.1745166582048097	0.2734723832531009	0.06623331156185654	-0.08364227608719049	-0.09243340486693273	-0.6730999963109046	2.063627521391207	0.003257931893773959	0.6613486420383786	-0.7570819363331681	2.431027378446683	2.431027378447009	0.2781011063984707	-9.067052870203704e-05	0.6202837985128044	0.2667556174413434	-0.2877554572644709	0.01066388961881426	-0.005364457310047061	-0.3249831790478289	0.05798512282461201	0.0390939755259539	0.3443428753404364	-25.2640757016083	-12.67811446396454	1.707606308298798	-9.683313024590136	-706.8896899175866	-74.10573419133769	-0.4016117932339635	0.6502722992144716	0.7963050244135406	-0.194910922147957	-2.029209033966048	0.3549344749725096	-0.7163654279947679	2.05029821104296	-2.473001043656606	-2.473001043656553	-0.1662745106373396	0.0285804783357439	-1.2281261120903	0.2278661299166071	-2.409230734691347e-07	-1.060358424879276e-06	1.082980654021381e-06	-7.33792692506626e-08	-2.826635316097052e-07	-1.513011355125397e-07	-2.683123202605121e-07
0.53	-0.1003556116651689	-0.03950259259439978	0.7260918392692641	1.182195765943374	-0.3261536063365524	0.001205890394131684	-0.8192855900277275	1.269288383270026	1.269288383270211	-0.04062158898888778	-0.1745174757584891	0.2796124973852366	0.06891045567927236	-0.07708504047749626	-0.08452646528767549	-0.6745733727007945	2.042551839945342	0.00659943783947412	0.6540330863992497	-0.736470922786017	2.405316529864053	2.405316529864483	0.2761591331716863	-8.280702259997558e-05	0.607647410074336	0.2686067574735533	-0.2942323040829206	0.0106550270541059	-0.005039853032355981	-0.3317467509671745	0.05603868967390075	0.03811483962597732	0.3510339261356625	-26.34909249838606	-11.8972319875385	1.39388243926517	-9.07094127911466	-713.5720017941628	-73.83438137841229	-0.1948582251087783	0.6616593092725792	0.7850869416088041	-0.09957321063035181	-2.185957621547456	0.3207839815590359	-0.749084289179436	2.071630573477608	-2.66726590433594	-2.667265904320372	-0.2082473560493747	-0.01440789252185448	-1.29518264387082	0.1538000793537589	-2.078980485894947e-07	-7.968015176184404e-07	1.129426707414856e-06	-4.663511053004093e-08	-2.519966201160854e-07	2.782179158161396e-08	-2.475353832678042e-07
0.54	-0.1010931416453934	-0.04030878990926536	0.7193427331392861	1.202509370053798	-0.3260714036717453	0.007707979398103048	-0.8265463895800452	1.293205139553996	1.293205139554541	-0.0378697285040978	-0.1745184741129555	0.2856234901461584	0.07160412362490684	-0.07039940017082973	-0.07673158503122084	-0.6750876376195785	2.019907761633447	0.009821956872784511	0.6463201844678244	-0.7156548033618517	2.377720115730628	2.377720115731162	0.2742136148508904	-0.0001268306872575462	0.5944595242700447	0.2700603830849947	-0.3007091509013895	0.01064616448940886	-0.004715248754661846	-0.3385103228865231	0.05409225652319281	0.03713570372601548	0.3577249769308719	-27.43686510157644	-11.12084886339009	1.086567123297221	-8.513386307253029	-720.277627000573	-73.61746742042159	-0.07530766717180952	0.6759532386085654	0.7738931598532586	-0.003088627926705953	-2.342888407172021	0.3311370924945589	-0.7958346864540156	2.091319386445581	-2.85011415381571	-2.850114153815711	-0.1669835294396824	0.01820304418389271	-1.338425585254552	0.1483632457630559	-1.573950083638144e-07	-3.917524155396164e-07	1.211266884116752e-06	-3.929755435993978e-09	-2.081272794335533e-07	2.937579230816494e-07	-2.155786612175886e-07
0.55	-0.1017633108608802	-0.0410376606316054	0.7125932561241701	1.222588976619605	-0.3259573049846188	0.01413179834293619	-0.8335980077630383	1.316836834205025	1.316836834205196	-0.03513765316805193	-0.1745193987694809	0.2915001115669503	0.07431072408464151	-0.06361849666588347	-0.0690674577296328	-0.6746466229949082	1.995757479741298	0.01297326877483463	0.6383875045524324	-0.6946473903975544	2.34831916662163	2.348319166622293	0.2721839090865981	-7.302573900289992e-05	0.5807870047514637	0.2711862841828159	-0.3069377485587974	0.01038129584306693	-0.004370976636942933	-0.3452743442358781	0.05196603604089383	0.03620512922439429	0.3641454446693171	-28.57845943604518	-10.36667187435843	0.7948300165282782	-7.826282230791492	-726.8324937551483	-73.50267483053548	-0.04216057543615892	0.6815324497809537	0.7589416447977012	0.09183102939787305	-2.48953094798362	0.3032778539734662	-0.8005731222075863	2.108668676864932	-3.029992838103511	-3.029992838084231	-0.223676940645237	-0.00301258727794559	-1.393327608404473	0.08356797278093284	-1.000743346578357e-07	-8.318351318354581e-08	1.127483708545135e-06	1.269242942069092e-08	-1.569145843267172e-07	4.356889564930912e-07	-1.69658979231818e-07
0.5600000000000001	-0.1023651963326384	-0.04169063625503185	0.7058530161596488	1.242419393792944	-0.3258124632554894	0.02047457279299363	-0.8404389085312988	1.34016553785523	1.340165537855031	-0.03242641745780531	-0.1745201817380095	0.2972376752979077	0.07702635644155277	-0.05674265142726038	-0.06155256524849847	-0.6732402275009339	1.97006988313925	0.01597056527341148	0.6301112855120125	-0.6735113204155724	2.317121915566164	2.317121915566956	0.2700456896934612	-9.849308770633199e-05	0.566647986303104	0.2718667625202167	-0.3131663462162246	0.01011642719673763	-0.004026704519329371	-0.3520383655852384	0.04983981555860027	0.03527455472279413	0.3705659124077453	-29.72800325001663	-9.610312143752008	0.5018427416767094	-7.168167890675821	-733.4772640561671	-73.43429841297475	-0.04203431280819836	0.6949415853435794	0.744046195762735	0.1899875459341265	-2.65035134915187	0.3003340117999094	-0.8645425114595549	2.11705078998231	-3.20937454310931	-3.20937454310931	-0.1886862552086531	0.002348584792375001	-1.431725371209997	0.05927869367917198	-3.457250077549928e-08	1.096091495052244e-07	8.449525102453105e-07	-1.985190007457608e-09	-9.688986391071644e-08	4.288138721982258e-07	-1.069837453233819e-07
0.5700000000000001	-0.1028980184606372	-0.04226925428146584	0.6991316281518886	1.261985537340195	-0.3256380345393289	0.02673279167042382	-0.847067820057861	1.363173592346215	1.363173592346188	-0.02973642926604115	-0.1745209651137725	0.3028318367378477	0.07974716802287504	-0.04981597674257544	-0.05420024703249693	-0.6708775361328001	1.942911949341824	0.0188913320405766	0.621485543614046	-0.6522611396169734	2.28420716255148	2.284207162551667	0.2679252957972595	-6.427243670051989e-05	0.5521257566270867	0.2722262277825978	-0.3189723419862839	0.009911294494417784	-0.003655694570291951	-0.3587854407895868	0.0479005528189109	0.0342026204460845	0.37658482953982	-30.8118632471418	-8.782396266317496	0.1727006825216159	-6.494390426780655	-739.8197957847627	-73.23950753615523	-0.04186266942955721	0.6923909471706168	0.7264415283878904	0.2833730328320268	-2.785555961901089	0.2842594868221457	-0.868684740081296	2.130478516365144	-3.37478438651052	-3.374784386601177	-0.227716097526548	0.003196267524333912	-1.471230813007778	0.01376419631612483	1.352784038777593e-08	2.125566656091484e-07	5.898321146089441e-07	-2.159930231479312e-08	-5.118835065128283e-08	3.752945636445274e-07	-5.788490299715293e-08
0.58	-0.1033614017343506	-0.04277522574696557	0.6924386596779266	1.281272693236103	-0.3254351358599673	0.03290333418665605	-0.8534839344181226	1.38584404756588	1.385844047566021	-0.02706844504138981	-0.1745215587905785	0.3082790240715859	0.08246947100758141	-0.04285488057235692	-0.04702325306164579	-0.6675563207415545	1.91427235286987	0.02166455791362976	0.6125760132714388	-0.6309518871557549	2.249602061302295	2.249602061301877	0.2656448962730376	-6.055329490009678e-05	0.5372531650626681	0.272165043196928	-0.3247783377563568	0.00970616179211678	-0.003284684621335967	-0.3655325159939389	0.04596129007922808	0.03313068616940531	0.3826037466718826	-31.908474280503	-7.945860869634008	-0.1651103597472743	-5.825209473407569	-746.3058150588357	-73.07429558114505	-0.04164787605815547	0.7018258824499624	0.7089813467328477	0.3816923505565355	-2.946683884057612	0.2708258329775245	-0.9213002003876267	2.128865122506068	-3.547444190009621	-3.54744419000962	-0.2206873808127436	-0.003751717048597327	-1.501797748889978	-0.0248512759308732	3.896577242855327e-08	1.984965489514162e-07	3.704095084877799e-07	-4.764233558106934e-08	-2.41403164794712e-08	2.610292886142126e-07	-2.646694273147246e-08
0.59	-0.1037551098441834	-0.04321035327642014	0.6857836638076755	1.300266190430004	-0.325205100388804	0.03898295919333308	-0.8596867518644936	1.408160198828299	1.408160198828359	-0.02442348513293078	-0.1745221299654604	0.3135759571869895	0.0851893080342635	-0.03589027113765681	-0.0400361873927261	-0.6632855708276345	1.884188350083176	0.0243192863176665	0.6033002846412225	-0.6096131000719497	2.213362364562535	2.213362364562104	0.2633207174451618	-5.487259255076593e-05	0.522092765132836	0.2717369678779606	-0.3301754043296404	0.009456237442977657	-0.002903649821414194	-0.372109302012392	0.04403702452826178	0.03205555415412337	0.38821033523163	-32.98196901783187	-7.107140147876558	-0.5088031692633224	-5.117659400873855	-752.401987705838	-72.91795979487073	-0.04137536124897517	0.6932443151772114	0.6884664129581457	0.4733570252758926	-3.075072499223987	0.2592615134843252	-0.938014615315339	2.13616080789502	-3.702104796867772	-3.702104796869949	-0.2422210711738117	0.002606370468510564	-1.529244038919598	-0.06165530810575261	6.207234596980345e-08	1.828708141263794e-07	1.617212459169017e-07	-7.15916075208902e-08	3.338726360737111e-10	1.366323666452027e-07	4.328112233299396e-09
